<svg width="20" height="20" viewBox="0 0 20 20" fill="none" xmlns="http://www.w3.org/2000/svg">
<path d="M6.625 11.125H6.0625C4.81973 11.125 3.8125 12.134 3.8125 13.3792V15.6208C3.8125 16.8657 4.81973 17.875 6.0625 17.875H6.625C7.24621 17.875 7.75 17.3702 7.75 16.7479V12.2521C7.75 11.6295 7.24621 11.125 6.625 11.125ZM13.9375 11.125H13.375C12.7538 11.125 12.25 11.6295 12.25 12.2521V16.7479C12.25 17.3702 12.7538 17.875 13.375 17.875H13.9375C15.1803 17.875 16.1875 16.8657 16.1875 15.6208V13.3792C16.1875 12.1343 15.1803 11.125 13.9375 11.125ZM10 2.125C4.96949 2.125 1.16066 6.31316 1 11.125V15.0625C1 15.3733 1.25172 15.625 1.5625 15.625H2.125C2.43578 15.625 2.6875 15.3733 2.6875 15.0625V11.125C2.6875 7.09363 5.96863 3.81953 10 3.81883C14.0314 3.81953 17.3125 7.09363 17.3125 11.125V15.0625C17.3125 15.3733 17.5642 15.625 17.875 15.625H18.4375C18.7483 15.625 19 15.3733 19 15.0625V11.125C18.8393 6.31316 15.0305 2.125 10 2.125Z" fill="white"/>
</svg>
