<svg width="26" height="26" viewBox="0 0 26 26" fill="none" xmlns="http://www.w3.org/2000/svg">
<path fill-rule="evenodd" clip-rule="evenodd" d="M4.08991 6.96498C5.02755 6.02762 6.29909 5.50105 7.62491 5.50105C8.95073 5.50105 10.2223 6.02762 11.1599 6.96498L12.6249 8.42873L14.0899 6.96498C14.5511 6.48743 15.1029 6.10652 15.7129 5.84447C16.3229 5.58243 16.979 5.4445 17.6429 5.43873C18.3068 5.43296 18.9652 5.55947 19.5797 5.81087C20.1942 6.06227 20.7524 6.43354 21.2219 6.903C21.6913 7.37247 22.0626 7.93073 22.314 8.54521C22.5654 9.15969 22.6919 9.81809 22.6862 10.482C22.6804 11.1459 22.5425 11.802 22.2804 12.412C22.0184 13.022 21.6375 13.5737 21.1599 14.035L12.6249 22.5712L4.08991 14.035C3.15255 13.0973 2.62598 11.8258 2.62598 10.5C2.62598 9.17416 3.15255 7.90262 4.08991 6.96498V6.96498Z" fill="#2BD268"/>
</svg>
