<svg width="60" height="60" viewBox="0 0 60 60" fill="none" xmlns="http://www.w3.org/2000/svg">
<path d="M28.572 20.4905L38.829 27.3306C39.2684 27.6236 39.6287 28.0238 39.8779 28.4894C40.1271 28.9551 40.2574 29.4751 40.2574 30.0032C40.2574 30.5313 40.1271 31.0513 39.8779 31.5169C39.6287 31.9826 39.2684 32.3795 38.829 32.6725L28.572 39.5127C28.0888 39.8351 27.5272 40.0202 26.947 40.0484C26.3668 40.0766 25.7899 39.9467 25.2778 39.6727C24.7656 39.3987 24.3375 38.9908 24.039 38.4925C23.7405 37.9942 23.5829 37.4242 23.583 36.8434V23.1662C23.5818 22.5848 23.7385 22.014 24.0365 21.5148C24.3345 21.0156 24.7626 20.6068 25.2749 20.332C25.7873 20.0572 26.3647 19.9268 26.9454 19.9547C27.5261 19.9826 28.0883 20.1678 28.572 20.4905Z" fill="white" stroke="white" stroke-width="2" stroke-linecap="round" stroke-linejoin="round"/>
<path d="M56.677 41.05C58.1281 37.5467 58.875 33.7919 58.875 30C58.875 22.3419 55.8328 14.9974 50.4177 9.58229C45.0026 4.16718 37.6581 1.125 30 1.125C22.3419 1.125 14.9974 4.16718 9.58229 9.58229C4.16718 14.9974 1.125 22.3419 1.125 30C1.125 33.7919 1.87187 37.5467 3.32298 41.05C4.77408 44.5533 6.901 47.7364 9.58229 50.4177C12.2636 53.099 15.4467 55.2259 18.95 56.677C22.4533 58.1281 26.2081 58.875 30 58.875C33.7919 58.875 37.5467 58.1281 41.05 56.677C44.5533 55.2259 47.7364 53.099 50.4177 50.4177C53.099 47.7364 55.2259 44.5533 56.677 41.05Z" stroke="white" stroke-width="2" stroke-linecap="round" stroke-linejoin="round"/>
</svg>
