<svg width="122" height="64" viewBox="0 0 122 64" fill="none" xmlns="http://www.w3.org/2000/svg">
<path fill-rule="evenodd" clip-rule="evenodd" d="M24.0899 25.965C25.0275 25.0277 26.2991 24.5011 27.6249 24.5011C28.9507 24.5011 30.2223 25.0277 31.1599 25.965L32.6249 27.4288L34.0899 25.965C34.5511 25.4875 35.1029 25.1065 35.7129 24.8445C36.3229 24.5825 36.979 24.4445 37.6429 24.4388C38.3068 24.433 38.9652 24.5595 39.5797 24.8109C40.1942 25.0623 40.7524 25.4336 41.2219 25.903C41.6913 26.3725 42.0626 26.9308 42.314 27.5452C42.5654 28.1597 42.6919 28.8181 42.6862 29.482C42.6804 30.1459 42.5425 30.802 42.2804 31.412C42.0184 32.0221 41.6375 32.5738 41.1599 33.035L32.6249 41.5713L24.0899 33.035C23.1526 32.0974 22.626 30.8258 22.626 29.5C22.626 28.1742 23.1526 26.9026 24.0899 25.965Z" fill="#2BD268"/>
<path d="M88.572 22.4905L98.829 29.3306C99.2684 29.6236 99.6287 30.0238 99.8779 30.4894C100.127 30.9551 100.257 31.4751 100.257 32.0032C100.257 32.5313 100.127 33.0513 99.8779 33.5169C99.6287 33.9826 99.2684 34.3795 98.829 34.6725L88.572 41.5127C88.0888 41.8351 87.5272 42.0202 86.947 42.0484C86.3668 42.0766 85.7899 41.9467 85.2778 41.6727C84.7656 41.3987 84.3375 40.9908 84.039 40.4925C83.7405 39.9942 83.5829 39.4242 83.583 38.8434V25.1662C83.5818 24.5848 83.7385 24.014 84.0365 23.5148C84.3345 23.0156 84.7626 22.6068 85.2749 22.332C85.7873 22.0572 86.3647 21.9268 86.9454 21.9547C87.5261 21.9826 88.0883 22.1678 88.572 22.4905Z" fill="white" stroke="white" stroke-width="2" stroke-linecap="round" stroke-linejoin="round"/>
<path d="M116.677 43.05C118.128 39.5467 118.875 35.7919 118.875 32C118.875 24.3419 115.833 16.9974 110.418 11.5823C105.003 6.16718 97.6581 3.125 90 3.125C82.3419 3.125 74.9974 6.16718 69.5823 11.5823C64.1672 16.9974 61.125 24.3419 61.125 32C61.125 35.7919 61.8719 39.5467 63.323 43.05C64.7741 46.5533 66.901 49.7364 69.5823 52.4177C72.2636 55.099 75.4467 57.2259 78.95 58.677C82.4533 60.1281 86.2081 60.875 90 60.875C93.7919 60.875 97.5467 60.1281 101.05 58.677C104.553 57.2259 107.736 55.099 110.418 52.4177C113.099 49.7364 115.226 46.5533 116.677 43.05Z" stroke="white" stroke-width="2" stroke-linecap="round" stroke-linejoin="round"/>
<path d="M32 2H90V-2H32V2ZM90 62H32V66H90V62ZM32 62C15.4315 62 2 48.5685 2 32H-2C-2 50.7777 13.2223 66 32 66V62ZM120 32C120 48.5685 106.569 62 90 62V66C108.778 66 124 50.7777 124 32H120ZM90 2C106.569 2 120 15.4315 120 32H124C124 13.2223 108.778 -2 90 -2V2ZM32 -2C13.2223 -2 -2 13.2223 -2 32H2C2 15.4315 15.4315 2 32 2V-2Z" fill="#333333"/>
</svg>
