<svg width="35" height="35" viewBox="0 0 35 35" fill="none" xmlns="http://www.w3.org/2000/svg">
<path d="M28 13.9998C28.4641 13.9998 28.9092 13.8155 29.2374 13.4873C29.5656 13.1591 29.75 12.714 29.75 12.2498C29.75 11.7857 29.5656 11.3406 29.2374 11.0124C28.9092 10.6842 28.4641 10.4998 28 10.4998L25.781 10.4998C25.4738 9.96782 25.032 9.52603 24.4999 9.21887C23.9679 8.91171 23.3643 8.75 22.75 8.75C22.1357 8.75 21.5321 8.91171 21.0001 9.21887C20.468 9.52603 20.0262 9.96782 19.719 10.4998L7 10.4998C6.53587 10.4998 6.09075 10.6842 5.76256 11.0124C5.43437 11.3406 5.25 11.7857 5.25 12.2498C5.25 12.714 5.43437 13.1591 5.76256 13.4873C6.09075 13.8155 6.53587 13.9998 7 13.9998L19.719 13.9998C20.0262 14.5319 20.468 14.9737 21.0001 15.2808C21.5321 15.588 22.1357 15.7497 22.75 15.7497C23.3643 15.7497 23.9679 15.588 24.4999 15.2808C25.032 14.9737 25.4738 14.5319 25.781 13.9998L28 13.9998ZM29.75 22.7498C29.75 23.214 29.5656 23.6591 29.2374 23.9873C28.9092 24.3155 28.4641 24.4998 28 24.4998L15.281 24.4998C14.9738 25.0319 14.532 25.4737 13.9999 25.7808C13.4679 26.088 12.8643 26.2497 12.25 26.2497C11.6357 26.2497 11.0321 26.088 10.5001 25.7808C9.96803 25.4737 9.5262 25.0319 9.219 24.4998L7 24.4998C6.53587 24.4998 6.09075 24.3155 5.76256 23.9873C5.43437 23.6591 5.25 23.214 5.25 22.7498C5.25 22.2857 5.43437 21.8406 5.76256 21.5124C6.09075 21.1842 6.53587 20.9998 7 20.9998L9.219 20.9998C9.5262 20.4678 9.96803 20.026 10.5001 19.7189C11.0321 19.4117 11.6357 19.25 12.25 19.25C12.8643 19.25 13.4679 19.4117 13.9999 19.7189C14.532 20.026 14.9738 20.4678 15.281 20.9998L28 20.9998C28.4641 20.9998 28.9092 21.1842 29.2374 21.5124C29.5656 21.8406 29.75 22.2857 29.75 22.7498Z" fill="white"/>
</svg>
