<svg width="30" height="30" viewBox="0 0 30 30" fill="none" xmlns="http://www.w3.org/2000/svg">
<path d="M14.9999 3C12.613 3 10.3238 3.94821 8.63596 5.63604C6.94814 7.32387 5.99992 9.61305 5.99992 12V17.379L4.93942 18.4395C4.72971 18.6493 4.5869 18.9165 4.52905 19.2075C4.4712 19.4984 4.5009 19.7999 4.61441 20.074C4.72791 20.348 4.92012 20.5823 5.16674 20.7471C5.41335 20.9119 5.7033 20.9999 5.99992 21H23.9999C24.2966 20.9999 24.5865 20.9119 24.8331 20.7471C25.0797 20.5823 25.2719 20.348 25.3854 20.074C25.4989 19.7999 25.5287 19.4984 25.4708 19.2075C25.4129 18.9165 25.2701 18.6493 25.0604 18.4395L23.9999 17.379V12C23.9999 9.61305 23.0517 7.32387 21.3639 5.63604C19.6761 3.94821 17.3869 3 14.9999 3ZM14.9999 27C13.8064 27 12.6619 26.5259 11.8179 25.682C10.974 24.8381 10.4999 23.6935 10.4999 22.5H19.4999C19.4999 23.6935 19.0258 24.8381 18.1819 25.682C17.338 26.5259 16.1934 27 14.9999 27Z" fill="white"/>
</svg>
