<svg width="30" height="30" viewBox="0 0 30 30" fill="none" xmlns="http://www.w3.org/2000/svg">
<path fill-rule="evenodd" clip-rule="evenodd" d="M17.2351 4.755C16.6651 2.415 13.3351 2.415 12.7651 4.755C12.68 5.10662 12.5131 5.43319 12.2779 5.70812C12.0428 5.98305 11.7461 6.19857 11.4119 6.33716C11.0777 6.47574 10.7155 6.53346 10.3548 6.50563C9.99412 6.4778 9.64508 6.36521 9.33611 6.177C7.27811 4.923 4.92311 7.278 6.17711 9.336C6.98711 10.665 6.26861 12.399 4.75661 12.7665C2.41511 13.335 2.41511 16.6665 4.75661 17.2335C5.10833 17.3187 5.43495 17.4858 5.70988 17.7211C5.98481 17.9564 6.20027 18.2534 6.33872 18.5877C6.47717 18.9221 6.5347 19.2844 6.50662 19.6452C6.47853 20.006 6.36563 20.3551 6.17711 20.664C4.92311 22.722 7.27811 25.077 9.33611 23.823C9.64502 23.6345 9.99409 23.5216 10.3549 23.4935C10.7157 23.4654 11.078 23.5229 11.4124 23.6614C11.7467 23.7998 12.0437 24.0153 12.279 24.2902C12.5143 24.5652 12.6814 24.8918 12.7666 25.2435C13.3351 27.585 16.6666 27.585 17.2336 25.2435C17.3191 24.892 17.4863 24.5656 17.7217 24.2908C17.9571 24.0161 18.254 23.8008 18.5882 23.6624C18.9225 23.5239 19.2847 23.4664 19.6454 23.4943C20.0061 23.5222 20.3551 23.6348 20.6641 23.823C22.7221 25.077 25.0771 22.722 23.8231 20.664C23.6349 20.355 23.5223 20.006 23.4944 19.6453C23.4665 19.2846 23.5241 18.9224 23.6625 18.5881C23.8009 18.2539 24.0162 17.957 24.2909 17.7216C24.5657 17.4862 24.8921 17.319 25.2436 17.2335C27.5851 16.665 27.5851 13.3335 25.2436 12.7665C24.8919 12.6813 24.5653 12.5142 24.2903 12.2789C24.0154 12.0436 23.8 11.7466 23.6615 11.4123C23.5231 11.0779 23.4655 10.7156 23.4936 10.3548C23.5217 9.99398 23.6346 9.64491 23.8231 9.336C25.0771 7.278 22.7221 4.923 20.6641 6.177C20.3552 6.36552 20.0061 6.47842 19.6453 6.5065C19.2845 6.53459 18.9222 6.47706 18.5878 6.33861C18.2535 6.20016 17.9566 5.9847 17.7212 5.70977C17.4859 5.43484 17.3188 5.10822 17.2336 4.7565L17.2351 4.755ZM15.0001 19.5C16.1936 19.5 17.3382 19.0259 18.1821 18.182C19.026 17.3381 19.5001 16.1935 19.5001 15C19.5001 13.8065 19.026 12.6619 18.1821 11.818C17.3382 10.9741 16.1936 10.5 15.0001 10.5C13.8066 10.5 12.662 10.9741 11.8181 11.818C10.9742 12.6619 10.5001 13.8065 10.5001 15C10.5001 16.1935 10.9742 17.3381 11.8181 18.182C12.662 19.0259 13.8066 19.5 15.0001 19.5Z" fill="white"/>
</svg>
