<svg width="30" height="30" viewBox="0 0 30 30" fill="none" xmlns="http://www.w3.org/2000/svg">
<path fill-rule="evenodd" clip-rule="evenodd" d="M4.5 9C4.5 7.80653 4.97411 6.66193 5.81802 5.81802C6.66193 4.97411 7.80653 4.5 9 4.5H24C24.2786 4.5 24.5516 4.57757 24.7886 4.72402C25.0256 4.87048 25.2171 5.08002 25.3416 5.32918C25.4662 5.57834 25.519 5.85727 25.4939 6.13471C25.4689 6.41215 25.3671 6.67715 25.2 6.9L21.375 12L25.2 17.1C25.3671 17.3229 25.4689 17.5878 25.4939 17.8653C25.519 18.1427 25.4662 18.4217 25.3416 18.6708C25.2171 18.92 25.0256 19.1295 24.7886 19.276C24.5516 19.4224 24.2786 19.5 24 19.5H9C8.60217 19.5 8.22064 19.658 7.93934 19.9393C7.65804 20.2206 7.5 20.6022 7.5 21V25.5C7.5 25.8978 7.34196 26.2794 7.06066 26.5607C6.77936 26.842 6.39782 27 6 27C5.60218 27 5.22064 26.842 4.93934 26.5607C4.65804 26.2794 4.5 25.8978 4.5 25.5V9Z" fill="white"/>
</svg>
