<svg width="61" height="60" viewBox="0 0 61 60" fill="none" xmlns="http://www.w3.org/2000/svg">
<path d="M30.4998 0C13.9317 0 0.5 13.4317 0.5 30.0002C0.5 46.5694 13.9317 60 30.4998 60C47.0697 60 60.5 46.5694 60.5 30.0002C60.5 13.4328 47.0697 0.00143297 30.4995 0.00143297L30.4998 0V0ZM44.2575 43.2689C43.7202 44.1502 42.5667 44.4296 41.6854 43.8886C34.6418 39.5861 25.7747 38.6117 15.3321 40.9976C14.3258 41.2269 13.3227 40.5964 13.0935 39.5897C12.8631 38.583 13.4911 37.5799 14.4999 37.3507C25.9276 34.7387 35.7301 35.8639 43.6378 40.6967C44.5191 41.2376 44.7985 42.3876 44.2575 43.2689V43.2689ZM47.9295 35.0991C47.2524 36.2007 45.8123 36.5482 44.7125 35.8711C36.6486 30.9133 24.3564 29.4779 14.8184 32.3732C13.5814 32.7468 12.2749 32.0497 11.8995 30.8148C11.5269 29.5778 12.2244 28.2738 13.4592 27.8976C24.3543 24.5918 37.8988 26.1931 47.1593 31.8838C48.259 32.5609 48.6065 34.0011 47.9295 35.0994V35.0991ZM48.2447 26.5929C38.5759 20.8499 22.6236 20.3218 13.3922 23.1237C11.9098 23.5733 10.3422 22.7364 9.89297 21.254C9.44374 19.7708 10.2799 18.2042 11.7633 17.7536C22.3603 14.5365 39.9766 15.1581 51.1085 21.7666C52.4447 22.558 52.8817 24.2801 52.09 25.6117C51.3019 26.9451 49.5752 27.3846 48.2462 26.5929H48.2447Z" fill="#1ED760"/>
</svg>
