<svg width="12" height="21" viewBox="0 0 12 21" fill="none" xmlns="http://www.w3.org/2000/svg">
<path fill-rule="evenodd" clip-rule="evenodd" d="M0.586061 19.914C0.211119 19.5389 0.000488281 19.0303 0.000488281 18.5C0.000488281 17.9697 0.211119 17.4611 0.586061 17.086L7.17206 10.5L0.586061 3.914C0.221745 3.53679 0.0201557 3.03159 0.0247126 2.5072C0.0292694 1.9828 0.239608 1.48118 0.610424 1.11036C0.98124 0.739545 1.48287 0.529207 2.00726 0.52465C2.53165 0.520093 3.03686 0.721683 3.41406 1.086L11.4141 9.086C11.789 9.46105 11.9996 9.96967 11.9996 10.5C11.9996 11.0303 11.789 11.5389 11.4141 11.914L3.41406 19.914C3.03901 20.2889 2.53039 20.4996 2.00006 20.4996C1.46973 20.4996 0.961117 20.2889 0.586061 19.914Z" fill="white"/>
</svg>
