<svg width="20" height="14" viewBox="0 0 20 14" fill="none" xmlns="http://www.w3.org/2000/svg">
<path fill-rule="evenodd" clip-rule="evenodd" d="M10.7452 9.92653C11.3867 10.6757 12.1052 11.3884 12.9476 11.9925C14.6982 13.2478 16.9203 13.9961 19.9893 13.8394L19.8873 11.842C17.2353 11.9774 15.4677 11.3386 14.1131 10.3672C13.2954 9.78074 12.6062 9.0596 11.954 8.25161C11.9072 8.317 11.8601 8.38308 11.8126 8.44985L11.6623 8.6612C11.3779 9.06161 11.074 9.48924 10.7452 9.92653ZM8.82639 4.06222C8.21117 3.32311 7.52891 2.61897 6.73633 2.02162C5.06177 0.759555 2.94511 0.00262046 0.0114746 0.160711L0.119096 2.15781C2.60537 2.02383 4.25254 2.65407 5.53258 3.6188C6.31085 4.20537 6.97073 4.92579 7.60716 5.73564C7.6508 5.67442 7.69485 5.61256 7.73934 5.55006L7.75801 5.52384C8.08525 5.06417 8.43808 4.56853 8.82639 4.06222Z" fill="#F3F4F6"/>
<path d="M0.0651855 12.8407C10.905 13.4249 8.49615 0.575017 19.9382 1.1593" stroke="#F3F4F6" stroke-width="2"/>
</svg>
