<svg width="70" height="70" viewBox="0 0 70 70" fill="none" xmlns="http://www.w3.org/2000/svg">
<path fill-rule="evenodd" clip-rule="evenodd" d="M59 35C59 41.3652 56.4714 47.4697 51.9706 51.9706C47.4697 56.4714 41.3652 59 35 59C28.6348 59 22.5303 56.4714 18.0294 51.9706C13.5286 47.4697 11 41.3652 11 35C11 28.6348 13.5286 22.5303 18.0294 18.0294C22.5303 13.5286 28.6348 11 35 11C41.3652 11 47.4697 13.5286 51.9706 18.0294C56.4714 22.5303 59 28.6348 59 35ZM26 29C26 28.2044 26.3161 27.4413 26.8787 26.8787C27.4413 26.3161 28.2044 26 29 26C29.7956 26 30.5587 26.3161 31.1213 26.8787C31.6839 27.4413 32 28.2044 32 29V41C32 41.7956 31.6839 42.5587 31.1213 43.1213C30.5587 43.6839 29.7956 44 29 44C28.2044 44 27.4413 43.6839 26.8787 43.1213C26.3161 42.5587 26 41.7956 26 41V29ZM41 26C40.2044 26 39.4413 26.3161 38.8787 26.8787C38.3161 27.4413 38 28.2044 38 29V41C38 41.7956 38.3161 42.5587 38.8787 43.1213C39.4413 43.6839 40.2044 44 41 44C41.7956 44 42.5587 43.6839 43.1213 43.1213C43.6839 42.5587 44 41.7956 44 41V29C44 28.2044 43.6839 27.4413 43.1213 26.8787C42.5587 26.3161 41.7956 26 41 26Z" fill="white"/>
<path d="M35 57C22.8497 57 13 47.1503 13 35H-3C-3 55.9868 14.0132 73 35 73V57ZM57 35C57 47.1503 47.1503 57 35 57V73C55.9868 73 73 55.9868 73 35H57ZM35 13C47.1503 13 57 22.8497 57 35H73C73 14.0132 55.9868 -3 35 -3V13ZM35 -3C14.0132 -3 -3 14.0132 -3 35H13C13 22.8497 22.8497 13 35 13V-3Z" fill="white"/>
</svg>
