<svg width="20" height="18" viewBox="0 0 20 18" fill="none" xmlns="http://www.w3.org/2000/svg">
<path fill-rule="evenodd" clip-rule="evenodd" d="M14.9808 6.15384L19.7113 3.98608L15.4808 0.981799L14.9808 6.15384ZM2.05723 9.86185C2.17029 8.69214 2.64257 7.19871 4.29264 6.143C5.99028 5.05686 9.11864 4.31124 14.8383 5.15251L15.1358 3.17441C9.20778 2.3025 5.50512 2.99669 3.2178 4.46011C0.882914 5.95396 0.216288 8.11983 0.0658912 9.67591L2.05723 9.86185Z" fill="#F3F4F6"/>
<path fill-rule="evenodd" clip-rule="evenodd" d="M4.77091 12.6226L0.147908 15.0036L4.51474 17.8124L4.77091 12.6226ZM17.7061 8.20466C17.6482 9.377 17.2469 10.889 15.648 12.0179C14.0028 13.1795 10.9119 14.0661 5.15736 13.4862L4.95335 15.476C10.9171 16.0769 14.5836 15.2156 16.7999 13.6508C19.0625 12.0533 19.6268 9.86048 19.7038 8.29972L17.7061 8.20466Z" fill="#F3F4F6"/>
</svg>
