<svg width="21" height="18" viewBox="0 0 21 18" fill="none" xmlns="http://www.w3.org/2000/svg">
<path d="M6.75 0.25C6.41848 0.25 6.10054 0.381696 5.86612 0.616116C5.6317 0.850537 5.5 1.16848 5.5 1.5C5.5 1.83152 5.6317 2.14946 5.86612 2.38388C6.10054 2.6183 6.41848 2.75 6.75 2.75H14.25C14.5815 2.75 14.8995 2.6183 15.1339 2.38388C15.3683 2.14946 15.5 1.83152 15.5 1.5C15.5 1.16848 15.3683 0.850537 15.1339 0.616116C14.8995 0.381696 14.5815 0.25 14.25 0.25H6.75ZM3 5.25C3 4.91848 3.1317 4.60054 3.36612 4.36612C3.60054 4.1317 3.91848 4 4.25 4H16.75C17.0815 4 17.3995 4.1317 17.6339 4.36612C17.8683 4.60054 18 4.91848 18 5.25C18 5.58152 17.8683 5.89946 17.6339 6.13388C17.3995 6.3683 17.0815 6.5 16.75 6.5H4.25C3.91848 6.5 3.60054 6.3683 3.36612 6.13388C3.1317 5.89946 3 5.58152 3 5.25ZM0.5 10.25C0.5 9.58696 0.763392 8.95107 1.23223 8.48223C1.70107 8.01339 2.33696 7.75 3 7.75H18C18.663 7.75 19.2989 8.01339 19.7678 8.48223C20.2366 8.95107 20.5 9.58696 20.5 10.25V15.25C20.5 15.913 20.2366 16.5489 19.7678 17.0178C19.2989 17.4866 18.663 17.75 18 17.75H3C2.33696 17.75 1.70107 17.4866 1.23223 17.0178C0.763392 16.5489 0.5 15.913 0.5 15.25V10.25Z" fill="white"/>
</svg>
