<svg width="31" height="30" viewBox="0 0 31 30" fill="none" xmlns="http://www.w3.org/2000/svg">
<path d="M11 4.5C10.6022 4.5 10.2206 4.65804 9.93934 4.93934C9.65804 5.22064 9.5 5.60218 9.5 6C9.5 6.39782 9.65804 6.77936 9.93934 7.06066C10.2206 7.34196 10.6022 7.5 11 7.5H20C20.3978 7.5 20.7794 7.34196 21.0607 7.06066C21.342 6.77936 21.5 6.39782 21.5 6C21.5 5.60218 21.342 5.22064 21.0607 4.93934C20.7794 4.65804 20.3978 4.5 20 4.5H11ZM6.5 10.5C6.5 10.1022 6.65804 9.72064 6.93934 9.43934C7.22064 9.15804 7.60218 9 8 9H23C23.3978 9 23.7794 9.15804 24.0607 9.43934C24.342 9.72064 24.5 10.1022 24.5 10.5C24.5 10.8978 24.342 11.2794 24.0607 11.5607C23.7794 11.842 23.3978 12 23 12H8C7.60218 12 7.22064 11.842 6.93934 11.5607C6.65804 11.2794 6.5 10.8978 6.5 10.5ZM3.5 16.5C3.5 15.7044 3.81607 14.9413 4.37868 14.3787C4.94129 13.8161 5.70435 13.5 6.5 13.5H24.5C25.2956 13.5 26.0587 13.8161 26.6213 14.3787C27.1839 14.9413 27.5 15.7044 27.5 16.5V22.5C27.5 23.2956 27.1839 24.0587 26.6213 24.6213C26.0587 25.1839 25.2956 25.5 24.5 25.5H6.5C5.70435 25.5 4.94129 25.1839 4.37868 24.6213C3.81607 24.0587 3.5 23.2956 3.5 22.5V16.5Z" fill="#333333"/>
</svg>
