<svg width="31" height="30" viewBox="0 0 31 30" fill="none" xmlns="http://www.w3.org/2000/svg">
<path fill-rule="evenodd" clip-rule="evenodd" d="M15.5 28.5C22.9558 28.5 29 22.4558 29 15C29 7.54416 22.9558 1.5 15.5 1.5C8.04416 1.5 2 7.54416 2 15C2 22.4558 8.04416 28.5 15.5 28.5ZM15.9772 11.1794C18.7052 9.85514 20.0692 9.19301 20.7876 9.6837C20.9418 9.789 21.075 9.92216 21.1803 10.0763C21.6709 10.7947 21.0088 12.1587 19.6846 14.8867L19.6846 14.8867C18.9765 16.3454 18.6225 17.0747 18.011 17.2705C17.8744 17.3143 17.7321 17.3382 17.5887 17.3416C17.5035 17.3436 17.4195 17.3353 17.3352 17.3166C17.064 17.8297 16.3414 18.1805 15.0228 18.8206C12.2948 20.1449 10.9308 20.807 10.2124 20.3163C10.0582 20.211 9.92504 20.0778 9.81974 19.9237C9.32905 19.2053 9.99118 17.8413 11.3154 15.1133C12.0235 13.6546 12.3775 12.9253 12.989 12.7295C13.1256 12.6857 13.2679 12.6618 13.4113 12.6584C13.4965 12.6564 13.5805 12.6647 13.6648 12.6834C13.936 12.1703 14.6586 11.8195 15.9772 11.1794Z" fill="#333333"/>
</svg>
