<svg width="31" height="30" viewBox="0 0 31 30" fill="none" xmlns="http://www.w3.org/2000/svg">
<path fill-rule="evenodd" clip-rule="evenodd" d="M5.258 7.758C6.38317 6.63317 7.90902 6.00128 9.5 6.00128C11.091 6.00128 12.6168 6.63317 13.742 7.758L15.5 9.5145L17.258 7.758C17.8115 7.18494 18.4735 6.72784 19.2056 6.41339C19.9376 6.09894 20.7249 5.93342 21.5216 5.9265C22.3183 5.91957 23.1083 6.07138 23.8457 6.37307C24.5831 6.67475 25.253 7.12027 25.8164 7.68363C26.3797 8.24698 26.8252 8.9169 27.1269 9.65427C27.4286 10.3917 27.5804 11.1817 27.5735 11.9784C27.5666 12.7751 27.4011 13.5624 27.0866 14.2944C26.7722 15.0265 26.3151 15.6885 25.742 16.242L15.5 26.4855L5.258 16.242C4.13317 15.1168 3.50128 13.591 3.50128 12C3.50128 10.409 4.13317 8.88316 5.258 7.758Z" fill="#333333"/>
</svg>
