<svg width="31" height="30" viewBox="0 0 31 30" fill="none" xmlns="http://www.w3.org/2000/svg">
<path d="M16.8851 3.24496C16.5108 2.9125 16.0151 2.72726 15.5 2.72726C14.9849 2.72726 14.4893 2.9125 14.1149 3.24496L4.34879 11.9154C4.04977 12.1812 3.81166 12.5016 3.64907 12.8569C3.48648 13.2122 3.40282 13.595 3.40323 13.9817V24.5309C3.40376 25.2841 3.72262 26.0062 4.28971 26.5385C4.8568 27.0709 5.62571 27.37 6.42742 27.37H9.45162C10.2537 27.37 12.4758 27.3485 12.4758 27.3485C12.4758 27.3485 12.4758 25.2825 12.4758 24.529V19.7942C12.4758 19.543 12.582 19.3022 12.7711 19.1246C12.9601 18.947 13.2165 18.8472 13.4839 18.8472H17.5161C17.7835 18.8472 18.0399 18.947 18.2289 19.1246C18.418 19.3022 18.5242 19.543 18.5242 19.7942V24.529C18.5242 25.2825 18.5242 27.3485 18.5242 27.3485C18.5242 27.3485 20.7463 27.37 21.5484 27.37H24.5726C25.3746 27.37 26.1439 27.0706 26.711 26.5379C27.2782 26.0051 27.5968 25.2825 27.5968 24.529V13.9798C27.5967 13.5932 27.5125 13.2108 27.3496 12.8558C27.1867 12.5008 26.9483 12.1809 26.6492 11.9154L16.8851 3.24117V3.24496Z" fill="#333333"/>
</svg>
