<svg width="31" height="30" viewBox="0 0 31 30" fill="none" xmlns="http://www.w3.org/2000/svg">
<path fill-rule="evenodd" clip-rule="evenodd" d="M11 6C11 4.80653 11.4741 3.66193 12.318 2.81802C13.1619 1.97411 14.3065 1.5 15.5 1.5C16.6935 1.5 17.8381 1.97411 18.682 2.81802C19.5259 3.66193 20 4.80653 20 6V12C20 13.1935 19.5259 14.3381 18.682 15.182C17.8381 16.0259 16.6935 16.5 15.5 16.5C14.3065 16.5 13.1619 16.0259 12.318 15.182C11.4741 14.3381 11 13.1935 11 12V6ZM17 22.395C19.4993 22.0339 21.7848 20.7844 23.4378 18.8752C25.0907 16.9661 26.0003 14.5253 26 12C26 11.6022 25.842 11.2206 25.5607 10.9393C25.2794 10.658 24.8978 10.5 24.5 10.5C24.1022 10.5 23.7206 10.658 23.4393 10.9393C23.158 11.2206 23 11.6022 23 12C23 13.9891 22.2098 15.8968 20.8033 17.3033C19.3968 18.7098 17.4891 19.5 15.5 19.5C13.5109 19.5 11.6032 18.7098 10.1967 17.3033C8.79018 15.8968 8 13.9891 8 12C8 11.6022 7.84196 11.2206 7.56066 10.9393C7.27936 10.658 6.89782 10.5 6.5 10.5C6.10218 10.5 5.72064 10.658 5.43934 10.9393C5.15804 11.2206 5 11.6022 5 12C4.99966 14.5253 5.9093 16.9661 7.56223 18.8752C9.21516 20.7844 11.5007 22.0339 14 22.395V23.25V24V24.75V25.5C14 25.5 14 25.5 14 26.25C14 27.75 17 27.75 17 26.25C17 25.5 17 25.5 17 25.5V24.75C17 24.75 17 24 17 23.25C17 22.5 17 22.395 17 22.395Z" fill="#333333"/>
</svg>
